<svg id="SvgjsSvg1001" width="288" height="288" xmlns="http://www.w3.org/2000/svg" version="1.1" xmlns:xlink="http://www.w3.org/1999/xlink" xmlns:svgjs="http://svgjs.com/svgjs"><defs id="SvgjsDefs1002"></defs><g id="SvgjsG1008" transform="matrix(1,0,0,1,0,0)"><svg xmlns="http://www.w3.org/2000/svg" viewBox="0 0 512 512" width="288" height="288"><path d="M 256 0 C 397.386719 0 512 114.613281 512 256 C 512 397.386719 397.386719 512 256 512 C 114.613281 512 0 397.386719 0 256 C 0 114.613281 114.613281 0 256 0 Z M 256 0 " fill="#243d44" class="color000 svgShape"></path><path fill="#2dea8f" d="M 209.253906 290.304688 C 202.597656 290.304688 196.335938 288.972656 190.464844 286.308594 C 184.558594 283.648438 178.894531 280.765625 173.464844 277.65625 C 168.039062 274.515625 162.832031 271.617188 157.847656 268.953125 C 152.832031 266.324219 147.882812 265.011719 143 265.011719 C 141.226562 265.011719 139.402344 265.234375 137.523438 265.675781 C 135.644531 266.121094 133.820312 267.160156 132.042969 268.800781 C 130.269531 270.472656 128.546875 272.914062 126.875 276.121094 C 125.199219 279.363281 123.699219 283.75 122.367188 289.28125 L 88.421875 279.960938 C 89.546875 273.75 91.324219 267.195312 93.746094 260.300781 C 96.203125 253.441406 99.480469 247.125 103.578125 241.355469 C 107.671875 235.589844 112.828125 230.808594 119.039062 227.019531 C 125.253906 223.265625 132.691406 221.390625 141.363281 221.390625 C 148.019531 221.390625 154.28125 222.71875 160.152344 225.382812 C 166.023438 228.042969 171.671875 230.929688 177.101562 234.035156 C 182.5625 237.140625 187.785156 240.027344 192.769531 242.6875 C 197.75 245.351562 202.683594 246.679688 207.566406 246.679688 C 209.339844 246.679688 211.183594 246.460938 213.09375 246.015625 C 214.972656 245.574219 216.796875 244.515625 218.574219 242.839844 C 220.347656 241.203125 222.070312 238.761719 223.742188 235.519531 C 225.382812 232.3125 226.867188 227.941406 228.199219 222.414062 L 262.144531 231.730469 C 261.050781 237.945312 259.277344 244.480469 256.820312 251.339844 C 254.394531 258.234375 251.066406 264.566406 246.835938 270.335938 C 242.636719 276.070312 237.484375 280.832031 231.371094 284.621094 C 225.261719 288.410156 217.890625 290.304688 209.253906 290.304688 Z M 423.578125 94.925781 L 312.421875 417.074219 L 261.476562 417.074219 L 373.300781 94.925781 Z M 423.578125 94.925781 " class="colorfff svgShape"></path></svg></g></svg>