<svg shape-rendering="crispEdges" viewBox="0 0 32 32" xmlns="http://www.w3.org/2000/svg"><path fill="#050608" d="M0 0h32v32H0z"/><defs><pattern id="a" width="2" height="2" patternUnits="userSpaceOnUse"><path fill="#0fa36b" opacity=".15" d="M0 0h1v1H0z"/></pattern></defs><path fill="url(#a)" d="M0 0h32v32H0z"/><path d="M12 7h8v1h-8zm-1 1h10v7H11zm1 7h8v1h-8zm1 1h6v2h-6zm-2 2h10v1H11zm-1 1h12v1H10zm-1 1h14v12H9z" fill="#0fa36b"/><path d="M12 6h8v1h-8zm-1 1h1v1h-1zm9 0h1v1h-1zM10 8h1v7h-1zm11 0h1v7h-1zm-10 7h1v1h-1zm9 0h1v1h-1zm-8 1h1v2h-1zm7 0h1v2h-1zm-9 2h1v1h-1zm11 0h1v1h-1zM9 19h1v1H9zm13 0h1v1h-1zM8 20h1v12H8zm15 0h1v12h-1zM9 31h14v1H9z" fill="#4dff9a"/></svg>
